<mxfile host="app.diagrams.net" agent="Mozilla/5.0 (Windows NT 10.0; Win64; x64) AppleWebKit/537.36 (KHTML, like Gecko) Chrome/135.0.0.0 Safari/537.36" version="26.2.14">
  <diagram id="4MgxAiT06_KZMxbBPTQe" name="Page-1">
    <mxGraphModel dx="1870" dy="960" grid="1" gridSize="10" guides="1" tooltips="1" connect="1" arrows="1" fold="1" page="1" pageScale="1" pageWidth="1169" pageHeight="827" math="0" shadow="0">
      <root>
        <mxCell id="0" />
        <mxCell id="1" parent="0" />
        <mxCell id="RmRmJjvTmahBdNnuwfnu-4" value="" style="edgeStyle=orthogonalEdgeStyle;rounded=0;orthogonalLoop=1;jettySize=auto;html=1;endArrow=none;endFill=0;" parent="1" source="RmRmJjvTmahBdNnuwfnu-1" target="RmRmJjvTmahBdNnuwfnu-3" edge="1">
          <mxGeometry relative="1" as="geometry">
            <Array as="points">
              <mxPoint x="585" y="140" />
            </Array>
          </mxGeometry>
        </mxCell>
        <mxCell id="RmRmJjvTmahBdNnuwfnu-6" value="" style="edgeStyle=orthogonalEdgeStyle;rounded=0;orthogonalLoop=1;jettySize=auto;html=1;endArrow=none;endFill=0;" parent="1" source="RmRmJjvTmahBdNnuwfnu-1" target="RmRmJjvTmahBdNnuwfnu-5" edge="1">
          <mxGeometry relative="1" as="geometry">
            <Array as="points">
              <mxPoint x="585" y="140" />
            </Array>
          </mxGeometry>
        </mxCell>
        <mxCell id="RmRmJjvTmahBdNnuwfnu-1" value="&lt;font style=&quot;font-size: 21px;&quot;&gt;&lt;b style=&quot;&quot;&gt;&lt;u style=&quot;&quot;&gt;Difference Between&amp;nbsp;&lt;span style=&quot;font-family: Arial, sans-serif; white-space-collapse: preserve;&quot;&gt;Cyber Physical Systems&lt;/span&gt;&amp;nbsp;&lt;span style=&quot;&quot; id=&quot;docs-internal-guid-bd25a543-7fff-135d-6c64-f71b7c403fb6&quot;&gt;&lt;span style=&quot;font-family: Arial, sans-serif; background-color: transparent; font-variant-numeric: normal; font-variant-east-asian: normal; font-variant-alternates: normal; font-variant-position: normal; font-variant-emoji: normal; vertical-align: baseline; white-space-collapse: preserve;&quot;&gt;and Internet of Things &lt;/span&gt;&lt;/span&gt;&lt;/u&gt;&lt;/b&gt;&lt;/font&gt;" style="rounded=1;whiteSpace=wrap;html=1;fillColor=#d5e8d4;strokeColor=#82b366;" parent="1" vertex="1">
          <mxGeometry x="25" y="20" width="1120" height="60" as="geometry" />
        </mxCell>
        <mxCell id="RmRmJjvTmahBdNnuwfnu-8" value="" style="edgeStyle=orthogonalEdgeStyle;rounded=0;orthogonalLoop=1;jettySize=auto;html=1;endArrow=none;endFill=0;" parent="1" source="RmRmJjvTmahBdNnuwfnu-3" target="RmRmJjvTmahBdNnuwfnu-7" edge="1">
          <mxGeometry relative="1" as="geometry">
            <Array as="points">
              <mxPoint x="285" y="230" />
            </Array>
          </mxGeometry>
        </mxCell>
        <mxCell id="RmRmJjvTmahBdNnuwfnu-10" value="" style="edgeStyle=orthogonalEdgeStyle;rounded=0;orthogonalLoop=1;jettySize=auto;html=1;endArrow=none;endFill=0;" parent="1" source="RmRmJjvTmahBdNnuwfnu-3" target="RmRmJjvTmahBdNnuwfnu-9" edge="1">
          <mxGeometry relative="1" as="geometry">
            <Array as="points">
              <mxPoint x="285" y="230" />
            </Array>
          </mxGeometry>
        </mxCell>
        <mxCell id="RmRmJjvTmahBdNnuwfnu-12" value="" style="edgeStyle=orthogonalEdgeStyle;rounded=0;orthogonalLoop=1;jettySize=auto;html=1;endArrow=none;endFill=0;" parent="1" source="RmRmJjvTmahBdNnuwfnu-3" target="RmRmJjvTmahBdNnuwfnu-11" edge="1">
          <mxGeometry relative="1" as="geometry">
            <Array as="points">
              <mxPoint x="285" y="240" />
              <mxPoint x="285" y="240" />
            </Array>
          </mxGeometry>
        </mxCell>
        <mxCell id="RmRmJjvTmahBdNnuwfnu-15" value="" style="edgeStyle=orthogonalEdgeStyle;rounded=0;orthogonalLoop=1;jettySize=auto;html=1;endArrow=none;endFill=0;" parent="1" source="RmRmJjvTmahBdNnuwfnu-3" target="RmRmJjvTmahBdNnuwfnu-14" edge="1">
          <mxGeometry relative="1" as="geometry">
            <Array as="points">
              <mxPoint x="285" y="325" />
            </Array>
          </mxGeometry>
        </mxCell>
        <mxCell id="RmRmJjvTmahBdNnuwfnu-18" value="" style="edgeStyle=orthogonalEdgeStyle;rounded=0;orthogonalLoop=1;jettySize=auto;html=1;endArrow=none;endFill=0;" parent="1" source="RmRmJjvTmahBdNnuwfnu-3" target="RmRmJjvTmahBdNnuwfnu-17" edge="1">
          <mxGeometry relative="1" as="geometry">
            <Array as="points">
              <mxPoint x="285" y="410" />
            </Array>
          </mxGeometry>
        </mxCell>
        <mxCell id="RmRmJjvTmahBdNnuwfnu-20" value="" style="edgeStyle=orthogonalEdgeStyle;rounded=0;orthogonalLoop=1;jettySize=auto;html=1;endArrow=none;endFill=0;" parent="1" source="RmRmJjvTmahBdNnuwfnu-3" target="RmRmJjvTmahBdNnuwfnu-19" edge="1">
          <mxGeometry relative="1" as="geometry">
            <Array as="points">
              <mxPoint x="285" y="410" />
            </Array>
          </mxGeometry>
        </mxCell>
        <mxCell id="RmRmJjvTmahBdNnuwfnu-22" value="" style="edgeStyle=orthogonalEdgeStyle;rounded=0;orthogonalLoop=1;jettySize=auto;html=1;endArrow=none;endFill=0;" parent="1" source="RmRmJjvTmahBdNnuwfnu-3" target="RmRmJjvTmahBdNnuwfnu-21" edge="1">
          <mxGeometry relative="1" as="geometry">
            <Array as="points">
              <mxPoint x="285" y="500" />
            </Array>
          </mxGeometry>
        </mxCell>
        <mxCell id="RmRmJjvTmahBdNnuwfnu-3" value="&lt;b&gt;Cyber Physical Systems&lt;/b&gt;" style="rounded=1;whiteSpace=wrap;html=1;fillColor=#dae8fc;strokeColor=#6c8ebf;" parent="1" vertex="1">
          <mxGeometry x="25" y="110" width="520" height="60" as="geometry" />
        </mxCell>
        <mxCell id="RmRmJjvTmahBdNnuwfnu-24" value="" style="edgeStyle=orthogonalEdgeStyle;rounded=0;orthogonalLoop=1;jettySize=auto;html=1;endArrow=none;endFill=0;" parent="1" source="RmRmJjvTmahBdNnuwfnu-5" target="RmRmJjvTmahBdNnuwfnu-23" edge="1">
          <mxGeometry relative="1" as="geometry">
            <Array as="points">
              <mxPoint x="885" y="230" />
            </Array>
          </mxGeometry>
        </mxCell>
        <mxCell id="RmRmJjvTmahBdNnuwfnu-26" value="" style="edgeStyle=orthogonalEdgeStyle;rounded=0;orthogonalLoop=1;jettySize=auto;html=1;endArrow=none;endFill=0;" parent="1" source="RmRmJjvTmahBdNnuwfnu-5" target="RmRmJjvTmahBdNnuwfnu-25" edge="1">
          <mxGeometry relative="1" as="geometry">
            <Array as="points">
              <mxPoint x="885" y="230" />
            </Array>
          </mxGeometry>
        </mxCell>
        <mxCell id="RmRmJjvTmahBdNnuwfnu-28" value="" style="edgeStyle=orthogonalEdgeStyle;rounded=0;orthogonalLoop=1;jettySize=auto;html=1;endArrow=none;endFill=0;" parent="1" source="RmRmJjvTmahBdNnuwfnu-5" target="RmRmJjvTmahBdNnuwfnu-27" edge="1">
          <mxGeometry relative="1" as="geometry">
            <Array as="points">
              <mxPoint x="885" y="325" />
            </Array>
          </mxGeometry>
        </mxCell>
        <mxCell id="RmRmJjvTmahBdNnuwfnu-30" style="edgeStyle=orthogonalEdgeStyle;rounded=0;orthogonalLoop=1;jettySize=auto;html=1;endArrow=none;endFill=0;" parent="1" source="RmRmJjvTmahBdNnuwfnu-5" target="RmRmJjvTmahBdNnuwfnu-29" edge="1">
          <mxGeometry relative="1" as="geometry">
            <Array as="points">
              <mxPoint x="885" y="230" />
            </Array>
          </mxGeometry>
        </mxCell>
        <mxCell id="RmRmJjvTmahBdNnuwfnu-5" value="&lt;b&gt;Internet of Things&lt;/b&gt;" style="rounded=1;whiteSpace=wrap;html=1;fillColor=#ffe6cc;strokeColor=#d79b00;" parent="1" vertex="1">
          <mxGeometry x="625" y="110" width="520" height="60" as="geometry" />
        </mxCell>
        <mxCell id="RmRmJjvTmahBdNnuwfnu-7" value="&lt;div&gt;&lt;b&gt;Origin&lt;br&gt;&lt;/b&gt;&lt;i&gt;Emerged from System Engineering Perspective&lt;/i&gt;&lt;br&gt;&lt;/div&gt;" style="whiteSpace=wrap;html=1;rounded=1;fillColor=#dae8fc;strokeColor=#6c8ebf;" parent="1" vertex="1">
          <mxGeometry x="25" y="200" width="240" height="70" as="geometry" />
        </mxCell>
        <mxCell id="RmRmJjvTmahBdNnuwfnu-9" value="&lt;b&gt;Encompasses&lt;br&gt;&lt;/b&gt;Both open-loop and closed-loop control systems" style="whiteSpace=wrap;html=1;rounded=1;fillColor=#dae8fc;strokeColor=#6c8ebf;" parent="1" vertex="1">
          <mxGeometry x="305" y="200" width="240" height="70" as="geometry" />
        </mxCell>
        <mxCell id="RmRmJjvTmahBdNnuwfnu-11" value="&lt;b&gt;Object diagram&lt;/b&gt;&lt;br&gt;&lt;i&gt;Partial and complete view of the structure &lt;br&gt;of a system at a specific time&lt;/i&gt;" style="whiteSpace=wrap;html=1;rounded=1;fillColor=#dae8fc;strokeColor=#6c8ebf;" parent="1" vertex="1">
          <mxGeometry x="25" y="290" width="240" height="70" as="geometry" />
        </mxCell>
        <mxCell id="RmRmJjvTmahBdNnuwfnu-14" value="&lt;div&gt;&lt;b&gt;Composite structure diagram&lt;/b&gt;&lt;/div&gt;&lt;div&gt;&lt;i&gt;Internal structure of a classifier and the collaborations this structure enables&lt;/i&gt;&lt;br&gt;&lt;/div&gt;" style="whiteSpace=wrap;html=1;rounded=1;fillColor=#dae8fc;strokeColor=#6c8ebf;" parent="1" vertex="1">
          <mxGeometry x="305" y="290" width="240" height="70" as="geometry" />
        </mxCell>
        <mxCell id="RmRmJjvTmahBdNnuwfnu-17" value="&lt;div&gt;&lt;b&gt;Profile diagram&lt;/b&gt;&lt;/div&gt;&lt;div&gt;&lt;i&gt;Metamodel to show stereotypes as classes and profiles as packages&lt;/i&gt;&lt;br&gt;&lt;/div&gt;" style="whiteSpace=wrap;html=1;rounded=1;fillColor=#dae8fc;strokeColor=#6c8ebf;" parent="1" vertex="1">
          <mxGeometry x="305" y="380" width="240" height="70" as="geometry" />
        </mxCell>
        <mxCell id="RmRmJjvTmahBdNnuwfnu-19" value="&lt;b&gt;Component diagram&lt;/b&gt;&lt;i&gt;&lt;br&gt;Components and their dependencies in a software system&lt;/i&gt;" style="whiteSpace=wrap;html=1;rounded=1;fillColor=#dae8fc;strokeColor=#6c8ebf;" parent="1" vertex="1">
          <mxGeometry x="25" y="380" width="240" height="70" as="geometry" />
        </mxCell>
        <mxCell id="RmRmJjvTmahBdNnuwfnu-21" value="&lt;b&gt;Deployment diagram&lt;/b&gt;&lt;br&gt;&lt;i&gt;Hardware in a system implementation and their deployed environment and artifacts&lt;/i&gt;" style="whiteSpace=wrap;html=1;rounded=1;fillColor=#dae8fc;strokeColor=#6c8ebf;" parent="1" vertex="1">
          <mxGeometry x="25" y="470" width="240" height="70" as="geometry" />
        </mxCell>
        <mxCell id="RmRmJjvTmahBdNnuwfnu-23" value="&lt;b&gt;Origin&lt;br&gt;&lt;/b&gt;&lt;i&gt;Emerged from Network and Information Technology Perspective&lt;/i&gt;" style="whiteSpace=wrap;html=1;rounded=1;fillColor=#ffe6cc;strokeColor=#d79b00;" parent="1" vertex="1">
          <mxGeometry x="625" y="200" width="240" height="70" as="geometry" />
        </mxCell>
        <mxCell id="RmRmJjvTmahBdNnuwfnu-25" value="&lt;div&gt;&lt;b&gt;Encompasses&lt;br&gt;&lt;/b&gt;Mainly open-loop control systems&lt;/div&gt;" style="whiteSpace=wrap;html=1;rounded=1;fillColor=#ffe6cc;strokeColor=#d79b00;" parent="1" vertex="1">
          <mxGeometry x="905" y="200" width="240" height="70" as="geometry" />
        </mxCell>
        <mxCell id="RmRmJjvTmahBdNnuwfnu-27" value="&lt;b&gt;State machine diagram&lt;/b&gt;&lt;br&gt;&lt;i&gt;System states and their transitions&lt;/i&gt;" style="whiteSpace=wrap;html=1;rounded=1;fillColor=#ffe6cc;strokeColor=#d79b00;" parent="1" vertex="1">
          <mxGeometry x="905" y="290" width="240" height="70" as="geometry" />
        </mxCell>
        <mxCell id="RmRmJjvTmahBdNnuwfnu-32" value="" style="edgeStyle=orthogonalEdgeStyle;rounded=0;orthogonalLoop=1;jettySize=auto;html=1;endArrow=none;endFill=0;" parent="1" source="RmRmJjvTmahBdNnuwfnu-29" target="RmRmJjvTmahBdNnuwfnu-31" edge="1">
          <mxGeometry relative="1" as="geometry">
            <Array as="points">
              <mxPoint x="885" y="515" />
            </Array>
          </mxGeometry>
        </mxCell>
        <mxCell id="RmRmJjvTmahBdNnuwfnu-34" value="" style="edgeStyle=orthogonalEdgeStyle;rounded=0;orthogonalLoop=1;jettySize=auto;html=1;endArrow=none;endFill=0;" parent="1" source="RmRmJjvTmahBdNnuwfnu-29" target="RmRmJjvTmahBdNnuwfnu-33" edge="1">
          <mxGeometry relative="1" as="geometry">
            <Array as="points">
              <mxPoint x="885" y="515" />
            </Array>
          </mxGeometry>
        </mxCell>
        <mxCell id="RmRmJjvTmahBdNnuwfnu-37" value="" style="edgeStyle=orthogonalEdgeStyle;rounded=0;orthogonalLoop=1;jettySize=auto;html=1;endArrow=none;endFill=0;" parent="1" source="RmRmJjvTmahBdNnuwfnu-29" target="RmRmJjvTmahBdNnuwfnu-36" edge="1">
          <mxGeometry relative="1" as="geometry">
            <Array as="points">
              <mxPoint x="885" y="605" />
            </Array>
          </mxGeometry>
        </mxCell>
        <mxCell id="RmRmJjvTmahBdNnuwfnu-39" value="" style="edgeStyle=orthogonalEdgeStyle;rounded=0;orthogonalLoop=1;jettySize=auto;html=1;endArrow=none;endFill=0;" parent="1" source="RmRmJjvTmahBdNnuwfnu-29" target="RmRmJjvTmahBdNnuwfnu-38" edge="1">
          <mxGeometry relative="1" as="geometry">
            <Array as="points">
              <mxPoint x="885" y="605" />
            </Array>
          </mxGeometry>
        </mxCell>
        <mxCell id="RmRmJjvTmahBdNnuwfnu-29" value="&lt;b&gt;Interaction diagrams&lt;/b&gt;" style="rounded=1;whiteSpace=wrap;html=1;fillColor=#fff2cc;strokeColor=#d6b656;" parent="1" vertex="1">
          <mxGeometry x="645" y="390" width="480" height="60" as="geometry" />
        </mxCell>
        <mxCell id="RmRmJjvTmahBdNnuwfnu-31" value="&lt;div&gt;&lt;b&gt;Sequence diagram&lt;/b&gt;&lt;/div&gt;&lt;div&gt;&lt;i&gt;Object communication and lifespans represented by the messages passed between them&lt;/i&gt;&lt;br&gt;&lt;/div&gt;" style="whiteSpace=wrap;html=1;rounded=1;fillColor=#fff2cc;strokeColor=#d6b656;" parent="1" vertex="1">
          <mxGeometry x="645" y="480" width="210" height="70" as="geometry" />
        </mxCell>
        <mxCell id="RmRmJjvTmahBdNnuwfnu-33" value="&lt;b&gt;Communication diagram&lt;/b&gt;&lt;br&gt;&lt;i&gt;Object interaction represented by sequenced messages&lt;/i&gt;" style="whiteSpace=wrap;html=1;rounded=1;strokeColor=#d6b656;fillColor=#fff2cc;" parent="1" vertex="1">
          <mxGeometry x="915" y="480" width="210" height="70" as="geometry" />
        </mxCell>
        <mxCell id="RmRmJjvTmahBdNnuwfnu-36" value="&lt;div&gt;&lt;b&gt;Timing diagram&lt;/b&gt;&lt;/div&gt;&lt;div&gt;&lt;i&gt;Timing constraints within a system&lt;/i&gt;&lt;br&gt;&lt;/div&gt;" style="whiteSpace=wrap;html=1;rounded=1;strokeColor=#d6b656;fillColor=#fff2cc;" parent="1" vertex="1">
          <mxGeometry x="645" y="570" width="210" height="70" as="geometry" />
        </mxCell>
        <mxCell id="RmRmJjvTmahBdNnuwfnu-38" value="&lt;b&gt;Interaction overview diagram&lt;/b&gt;&lt;br&gt;&lt;i&gt;System overview where each node is a communication diagram&lt;/i&gt;" style="whiteSpace=wrap;html=1;rounded=1;strokeColor=#d6b656;fillColor=#fff2cc;" parent="1" vertex="1">
          <mxGeometry x="915" y="570" width="210" height="70" as="geometry" />
        </mxCell>
        <mxCell id="cZbobdXolNbShjVMwffJ-1" value="" style="shape=image;html=1;verticalAlign=top;verticalLabelPosition=bottom;labelBackgroundColor=#ffffff;imageAspect=0;aspect=fixed;image=https://cdn1.iconfinder.com/data/icons/software-engineering-and-video-gaming/512/518_Distribution_grid_infrastructure_network_smart_Hardware_Engineering_Internet-128.png" vertex="1" parent="1">
          <mxGeometry x="430" y="600" width="128" height="128" as="geometry" />
        </mxCell>
        <mxCell id="cZbobdXolNbShjVMwffJ-2" value="" style="shape=image;html=1;verticalAlign=top;verticalLabelPosition=bottom;labelBackgroundColor=#ffffff;imageAspect=0;aspect=fixed;image=https://cdn2.iconfinder.com/data/icons/business-and-education-1/512/130_Building_Technology_Smart_City_Connected_internet_technology_smart-128.png" vertex="1" parent="1">
          <mxGeometry x="290" y="600" width="128" height="128" as="geometry" />
        </mxCell>
        <mxCell id="cZbobdXolNbShjVMwffJ-3" value="" style="shape=image;html=1;verticalAlign=top;verticalLabelPosition=bottom;labelBackgroundColor=#ffffff;imageAspect=0;aspect=fixed;image=https://cdn1.iconfinder.com/data/icons/software-engineering-and-video-gaming/512/501_Buildings_city_sensor_smart_urban_Hardware_Engineering_Internet-128.png" vertex="1" parent="1">
          <mxGeometry x="150" y="600" width="128" height="128" as="geometry" />
        </mxCell>
        <mxCell id="cZbobdXolNbShjVMwffJ-4" value="" style="shape=image;html=1;verticalAlign=top;verticalLabelPosition=bottom;labelBackgroundColor=#ffffff;imageAspect=0;aspect=fixed;image=https://cdn2.iconfinder.com/data/icons/business-and-education-1/512/126_building_smart_city_technology_satellite_corporation_technology_smart-128.png" vertex="1" parent="1">
          <mxGeometry x="10" y="600" width="128" height="128" as="geometry" />
        </mxCell>
        <mxCell id="cZbobdXolNbShjVMwffJ-5" value="" style="shape=image;html=1;verticalAlign=top;verticalLabelPosition=bottom;labelBackgroundColor=#ffffff;imageAspect=0;image=https://cdn4.iconfinder.com/data/icons/essential-app-1/16/tablet-smart-device-mobile-128.png" vertex="1" parent="1">
          <mxGeometry x="650" y="680" width="90" height="110" as="geometry" />
        </mxCell>
        <mxCell id="cZbobdXolNbShjVMwffJ-6" value="" style="sketch=0;pointerEvents=1;shadow=0;dashed=0;html=1;strokeColor=none;fillColor=#505050;labelPosition=center;verticalLabelPosition=bottom;verticalAlign=top;outlineConnect=0;align=center;shape=mxgraph.office.servers.topology_builder;" vertex="1" parent="1">
          <mxGeometry x="464.5" y="520" width="59" height="59" as="geometry" />
        </mxCell>
        <mxCell id="cZbobdXolNbShjVMwffJ-7" value="" style="shape=image;html=1;verticalAlign=top;verticalLabelPosition=bottom;labelBackgroundColor=#ffffff;imageAspect=0;aspect=fixed;image=https://cdn1.iconfinder.com/data/icons/computer-hardware-line-vol-1/52/device__electronic__signal__wifi__wireless__connection__router-128.png" vertex="1" parent="1">
          <mxGeometry x="740" y="662" width="128" height="128" as="geometry" />
        </mxCell>
      </root>
    </mxGraphModel>
  </diagram>
</mxfile>
